<svg xmlns="http://www.w3.org/2000/svg" viewBox="0 0 943.55 175.35"><defs><style>.cls-1{fill:#ff1d00;}</style></defs><title>title_1</title><g id="Layer_2" data-name="Layer 2"><g id="Layer_1-2" data-name="Layer 1"><path class="cls-1" d="M36.13,59.73H4.42V33.19H99.55V59.73H67.84V153H36.13Z" transform="translate(-4.42 -33.19)"/><path class="cls-1" d="M117.25,33.19H149V77.8h35.77V33.19h31.71V153H184.73V105.46H149V153H117.25Z" transform="translate(-4.42 -33.19)"/><path class="cls-1" d="M243,33.19h77.43V59.73H274.69V78.54h39.09v26.55H274.69v21.38h47.57V153H243Z" transform="translate(-4.42 -33.19)"/><path class="cls-1" d="M382.36,33.19h31.71V77.8h35.76V33.19h31.71V153H449.83V105.46H414.07V153H382.36Z" transform="translate(-4.42 -33.19)"/><path class="cls-1" d="M529.48,33.19h38.34L604.33,153H570.77L557.13,94.76c-3-11.43-5.9-26-8.85-38h-.74C545,69,542,83.33,539.06,94.76L525.42,153H493Zm-10.33,69.87h58.63v24.52H519.15Z" transform="translate(-4.42 -33.19)"/><path class="cls-1" d="M613.18,95.13V33.19h31.71V98.82c0,21.38,5.53,29.13,18.06,29.13s18.44-7.75,18.44-29.13V33.19H712V95.13c0,40.93-15.48,60.1-49,60.1S613.18,136.06,613.18,95.13Z" transform="translate(-4.42 -33.19)"/><path class="cls-1" d="M737.81,33.19h32.44L796.8,86.65l11.43,26.92H809c-1.48-12.91-4.06-31-4.06-45.72V33.19h30.24V153H802.7L776.15,99.37,764.72,72.64H764c1.48,13.64,4.06,31,4.06,45.72V153H737.81Z" transform="translate(-4.42 -33.19)"/><path class="cls-1" d="M884.56,59.73H852.85V33.19H948V59.73h-31.7V153H884.56Z" transform="translate(-4.42 -33.19)"/><path class="cls-1" d="M189.2,175h8.32l7.92,26h-7.28l-3-12.64c-.64-2.48-1.28-5.64-1.92-8.24h-.16c-.56,2.64-1.2,5.76-1.84,8.24l-3,12.64h-7ZM187,190.18h12.72v5.32H187Z" transform="translate(-4.42 -33.19)"/><path class="cls-1" d="M207.52,175h6.88v20.24h9.84V201H207.52Z" transform="translate(-4.42 -33.19)"/><path class="cls-1" d="M228.72,175h6.88v20.24h9.84V201H228.72Z" transform="translate(-4.42 -33.19)"/><path class="cls-1" d="M256.8,187.9c0-8.56,4.88-13.36,12.08-13.36S281,179.38,281,187.9s-4.88,13.6-12.08,13.6S256.8,196.46,256.8,187.9Zm17.12,0c0-4.72-1.92-7.44-5-7.44s-5,2.72-5,7.44,1.92,7.68,5,7.68S273.92,192.62,273.92,187.9Z" transform="translate(-4.42 -33.19)"/><path class="cls-1" d="M284.48,188.22c0-8.72,6-13.68,12.56-13.68a11.47,11.47,0,0,1,8.08,3.44l-3.6,4.4a6.34,6.34,0,0,0-4.32-1.92c-3,0-5.68,2.8-5.68,7.52,0,4.88,2.24,7.6,5.6,7.6a6.49,6.49,0,0,0,4.72-2.24l3.6,4.32a11,11,0,0,1-8.56,3.84C290.24,201.5,284.48,197.1,284.48,188.22Z" transform="translate(-4.42 -33.19)"/><path class="cls-1" d="M313.6,180.78h-6.88V175h20.64v5.76h-6.88V201H313.6Z" transform="translate(-4.42 -33.19)"/><path class="cls-1" d="M328.88,187.9c0-8.56,4.88-13.36,12.08-13.36S353,179.38,353,187.9s-4.88,13.6-12.08,13.6S328.88,196.46,328.88,187.9Zm17.12,0c0-4.72-1.92-7.44-5-7.44s-5,2.72-5,7.44,1.92,7.68,5,7.68S346,192.62,346,187.9Z" transform="translate(-4.42 -33.19)"/><path class="cls-1" d="M357.68,175H367c5.44,0,9.84,1.36,9.84,6.48,0,2.24-1.28,4.8-3.28,5.6v.16a5.92,5.92,0,0,1,4.48,6.08c0,5.36-4.64,7.68-10.24,7.68H357.68Zm9.2,10.16c2.24,0,3.28-1,3.28-2.64s-1-2.24-3.28-2.24h-2.32v4.88Zm.48,10.56c2.72,0,4-1,4-2.88s-1.28-2.64-4-2.64h-2.8v5.52Z" transform="translate(-4.42 -33.19)"/><path class="cls-1" d="M382.16,175H399v5.76H389v4.08h8.48v5.76H389v4.64h10.32V201h-17.2Z" transform="translate(-4.42 -33.19)"/><path class="cls-1" d="M404.4,175h9.84c5.6,0,10.4,1.92,10.4,8.4,0,6.28-4.8,8.88-10.4,8.88h-3V201H404.4Zm9.36,11.84c2.72,0,4.16-1.2,4.16-3.44s-1.44-3-4.16-3h-2.48v6.4ZM413,190.5l4.64-4.56L426.08,201H418.4Z" transform="translate(-4.42 -33.19)"/><path class="cls-1" d="M436.64,192.78c0-11.36,8.4-18.88,18.56-18.88,8.87,0,14.55,6.08,14.55,14.64,0,7.44-5.12,11.12-9.52,11.12-2.35,0-4.31-1.12-4.79-3h-.08a6.29,6.29,0,0,1-4.8,2.64c-3.28,0-5.44-2.48-5.44-6.16,0-5.12,3.68-10,8.24-10a3,3,0,0,1,3,2h.08l.64-1.68h4.15l-1.92,9.12c-.47,2,.08,3,1.68,3,2.4,0,4.56-2.72,4.56-6.8,0-5.44-2.8-10.72-10.87-10.72-6.72,0-13.44,5.76-13.44,14.64,0,7.92,5.6,11.44,11.6,11.44a14.66,14.66,0,0,0,5.92-1.44l1.43,3.68a16.66,16.66,0,0,1-7.91,1.84C444.16,208.14,436.64,203.34,436.64,192.78Zm17.68.64.88-5a1.77,1.77,0,0,0-1.6-1c-2.08,0-3.36,3.12-3.36,5.28,0,1.48.64,2.32,1.84,2.32C452.8,195,453.44,194.62,454.32,193.42Z" transform="translate(-4.42 -33.19)"/><path class="cls-1" d="M481.44,187.9c0-8.56,4.88-13.36,12.08-13.36s12.08,4.84,12.08,13.36-4.88,13.6-12.08,13.6S481.44,196.46,481.44,187.9Zm17.12,0c0-4.72-1.92-7.44-5-7.44s-5,2.72-5,7.44c0,5.12,1.92,8,5,8S498.56,193,498.56,187.9Zm-8.32,12.88,7-.72c1,2.32,3.68,3,5.91,3a9.17,9.17,0,0,0,3-.48l1.2,5a10.89,10.89,0,0,1-4.95,1A12.6,12.6,0,0,1,490.24,200.78Z" transform="translate(-4.42 -33.19)"/><path class="cls-1" d="M510.08,188.46V175H517v14.24c0,4.64,1.2,6.32,3.92,6.32s4-1.68,4-6.32V175h6.64v13.44c0,8.88-3.36,13-10.64,13S510.08,197.34,510.08,188.46Z" transform="translate(-4.42 -33.19)"/><path class="cls-1" d="M537.12,175h16.8v5.76H544v4.08h8.48v5.76H544v4.64h10.32V201h-17.2Z" transform="translate(-4.42 -33.19)"/><path class="cls-1" d="M559.36,175h16.8v5.76h-9.92v4.08h8.48v5.76h-8.48v4.64h10.32V201h-17.2Z" transform="translate(-4.42 -33.19)"/><path class="cls-1" d="M581.6,175h7l5.76,11.6,2.47,5.84H597a96.14,96.14,0,0,1-.87-9.92V175h6.55v26h-7l-5.76-11.64-2.48-5.8h-.16a97.29,97.29,0,0,1,.88,9.92V201H581.6Z" transform="translate(-4.42 -33.19)"/><path class="cls-1" d="M606.88,197.78l3.92-4.72a10.56,10.56,0,0,0,6.08,2.52c2.08,0,3-.68,3-1.84s-1.32-1.64-3.52-2.52l-3.24-1.36a7.68,7.68,0,0,1-5.24-7.24c0-4.44,4-8.08,9.68-8.08a12.46,12.46,0,0,1,8.63,3.48l-3.43,4.32a8.57,8.57,0,0,0-5.2-1.88c-1.68,0-2.72.6-2.72,1.76s1.48,1.68,3.84,2.6l3.16,1.24c3.23,1.28,5.07,3.52,5.07,7.12,0,4.4-3.68,8.32-10.15,8.32A15.06,15.06,0,0,1,606.88,197.78Z" transform="translate(-4.42 -33.19)"/><path class="cls-1" d="M637.92,188.22c0-8.72,6-13.68,12.56-13.68a11.45,11.45,0,0,1,8.07,3.44l-3.6,4.4a6.3,6.3,0,0,0-4.31-1.92c-3,0-5.68,2.8-5.68,7.52,0,4.88,2.24,7.6,5.6,7.6a6.45,6.45,0,0,0,4.71-2.24l3.6,4.32a10.93,10.93,0,0,1-8.55,3.84C643.68,201.5,637.92,197.1,637.92,188.22Z" transform="translate(-4.42 -33.19)"/><path class="cls-1" d="M667.12,175h8.32l7.91,26h-7.27l-3-12.64c-.64-2.48-1.28-5.64-1.92-8.24H671c-.56,2.64-1.2,5.76-1.84,8.24l-3,12.64h-7Zm-2.24,15.16H677.6v5.32H664.88Z" transform="translate(-4.42 -33.19)"/><path class="cls-1" d="M684.24,197.78l3.92-4.72a10.56,10.56,0,0,0,6.08,2.52c2.08,0,3-.68,3-1.84s-1.32-1.64-3.52-2.52l-3.24-1.36a7.68,7.68,0,0,1-5.24-7.24c0-4.44,4-8.08,9.68-8.08a12.52,12.52,0,0,1,8.64,3.48l-3.44,4.32a8.57,8.57,0,0,0-5.2-1.88c-1.68,0-2.72.6-2.72,1.76s1.48,1.68,3.84,2.6l3.16,1.24c3.23,1.28,5.07,3.52,5.07,7.12,0,4.4-3.67,8.32-10.15,8.32A15.06,15.06,0,0,1,684.24,197.78Z" transform="translate(-4.42 -33.19)"/><path class="cls-1" d="M712.56,180.78h-6.88V175h20.63v5.76h-6.87V201h-6.88Z" transform="translate(-4.42 -33.19)"/><path class="cls-1" d="M730.16,175H737v20.24h9.83V201H730.16Z" transform="translate(-4.42 -33.19)"/><path class="cls-1" d="M751.36,175h16.79v5.76h-9.91v4.08h8.48v5.76h-8.48v4.64h10.31V201H751.36Z" transform="translate(-4.42 -33.19)"/></g></g></svg>