<svg xmlns="http://www.w3.org/2000/svg" viewBox="0 0 65 220.17"><defs><style>.cls-1{fill:none;stroke:#fff;stroke-miterlimit:10;stroke-width:3px;}.cls-2{fill:#ff1d25;}</style></defs><title>balloon</title><g id="Layer_2" data-name="Layer 2"><g id="Layer_1-2" data-name="Layer 1"><path class="cls-1" d="M14,219c22-17.46,25.24-30.25,24.49-38.48-1.29-14.11-14.82-19.1-18-35-3.11-15.6,6-30.46,13.49-40"/><path class="cls-2" d="M54.63,94.24c-1.17,1.57-7.55,9.81-18.88,11.19C20.43,107.3,10.52,94.88,10,94.24a94.39,94.39,0,0,1,0-84.7A31.57,31.57,0,0,1,31.24,0C44.7-.45,53.29,8.15,54.63,9.54A92.08,92.08,0,0,1,65,50.47,92.24,92.24,0,0,1,54.63,94.24Z"/></g></g></svg>